G04 MODS 9x9 Sudoku Sampled Pinhole Sieve Mask *
G04 Created by R. Stoll & R. Pogge 2012 Sept 11 *

%FSLAX33Y33*%
%MOMM*%
%SFA1.0B1.0*%

G04 Aperture Definition *
%ADD10C,0.0*%
%ADD11C,0.240*%
%ADD501R,0.150X0.700*%
%ADD502R,0.700X0.150*%
%ADD521O,3.000X2.050*%
%ADD522O,2.050X3.000*%

%LNMASK*%
%LPD*%
G04 Slits *
G54D11*
X120000Y120000D03*
G54D11*
X27400Y27400D03*
G54D11*
X59500Y37300D03*
G54D11*
X74300Y29900D03*
G54D11*
X108900Y42200D03*
G54D11*
X123700Y34800D03*
G54D11*
X136000Y24900D03*
G54D11*
X173100Y39800D03*
G54D11*
X178000Y22500D03*
G54D11*
X210100Y32300D03*
G54D11*
X42200Y64400D03*
G54D11*
X62000Y62000D03*
G54D11*
X66900Y44700D03*
G54D11*
X94100Y49600D03*
G54D11*
X118800Y52100D03*
G54D11*
X143500Y54599D03*
G54D11*
X158300Y47200D03*
G54D11*
X192800Y59500D03*
G54D11*
X212600Y57000D03*
G54D11*
X34800Y79300D03*
G54D11*
X54599Y76800D03*
G54D11*
X69400Y69400D03*
G54D11*
X104000Y81700D03*
G54D11*
X128600Y84200D03*
G54D11*
X133600Y66900D03*
G54D11*
X160700Y71900D03*
G54D11*
X197800Y86700D03*
G54D11*
X207700Y74300D03*
G54D11*
X37300Y104000D03*
G54D11*
X52100Y96500D03*
G54D11*
X84200Y106400D03*
G54D11*
X99000Y99000D03*
G54D11*
X113800Y91600D03*
G54D11*
X153300Y108900D03*
G54D11*
X155800Y89100D03*
G54D11*
X190400Y101500D03*
G54D11*
X205200Y94100D03*
G54D11*
X22500Y111400D03*
G54D11*
X47200Y113800D03*
G54D11*
X71900Y116300D03*
G54D11*
X101500Y123700D03*
G54D11*
X126200Y126200D03*
G54D11*
X150900Y128600D03*
G54D11*
X165700Y121200D03*
G54D11*
X185400Y118800D03*
G54D11*
X220000Y131100D03*
G54D11*
X32300Y143500D03*
G54D11*
X57000Y145900D03*
G54D11*
X86700Y153300D03*
G54D11*
X89100Y133600D03*
G54D11*
X116300Y138500D03*
G54D11*
X141000Y141000D03*
G54D11*
X170600Y148400D03*
G54D11*
X195300Y150900D03*
G54D11*
X202700Y136000D03*
G54D11*
X29900Y163200D03*
G54D11*
X44700Y155800D03*
G54D11*
X81700Y170600D03*
G54D11*
X91600Y158300D03*
G54D11*
X131100Y175600D03*
G54D11*
X138500Y160700D03*
G54D11*
X168100Y168100D03*
G54D11*
X187900Y165700D03*
G54D11*
X217500Y173100D03*
G54D11*
X24900Y180500D03*
G54D11*
X64400Y197800D03*
G54D11*
X79300Y190400D03*
G54D11*
X106400Y195300D03*
G54D11*
X121200Y187900D03*
G54D11*
X148400Y192800D03*
G54D11*
X163200Y185400D03*
G54D11*
X183000Y183000D03*
G54D11*
X200200Y178000D03*
G54D11*
X39800Y217500D03*
G54D11*
X49600Y205200D03*
G54D11*
X76800Y210100D03*
G54D11*
X96500Y207700D03*
G54D11*
X111400Y200200D03*
G54D11*
X145900Y212600D03*
G54D11*
X175600Y220000D03*
G54D11*
X180500Y202700D03*
G54D11*
X215100Y215100D03*

G04 Centering Holes *
G54D521*
X232000Y120000D03*
X8000Y110000D03*
G54D522*
X120000Y232000D03*
X120000Y8000D03*
G54D10*

G04 Mask Countour *
G01X5000Y10000D02*
X10000Y5000D01*
X145000Y5000D01*
X145000Y7500D01*
G75*
G02X149000Y7500I2000J0D01*
G01X149000Y5000D01*
X230000Y5000D01*
X235000Y10000D01*
X235000Y230000D01*
X230000Y235000D01*
X10000Y235000D01*
X5000Y230000D01*
X5000Y10000D01*
M02*
